<svg width="141.379" height="94.164" viewBox="0 0 141.379 94.164" xmlns="http://www.w3.org/2000/svg">
    <g id="svgGroup" stroke-linecap="round" fill-rule="evenodd" font-size="9pt" stroke="#000000"
        stroke-width="0mm" fill="#151515" style="stroke:#000000;stroke-width:0mm;fill:#151515">
        <path
            d="M 69.958 0 L 84.854 0 L 115.71 49.875 Q 118.769 54.796 123.69 63.707 A 7095.213 7095.213 0 0 1 124.848 65.804 Q 128.096 71.692 128.736 72.882 A 13.057 13.057 0 0 1 128.877 73.15 L 128.877 0 L 141.379 0 L 141.379 94.164 L 128.478 94.164 L 95.361 39.634 A 400.167 400.167 0 0 1 90.462 31.29 A 474.761 474.761 0 0 1 87.448 25.935 Q 84.134 19.959 82.728 17.356 A 140.861 140.861 0 0 1 82.194 16.359 L 82.194 94.164 L 69.958 94.164 L 69.958 0 Z M 0 94.164 L 0 0 L 55.993 0 L 55.993 10.773 L 12.635 10.773 L 12.635 39.368 L 51.205 39.368 L 51.205 50.274 L 12.635 50.274 L 12.635 94.164 L 0 94.164 Z"
            vector-effect="non-scaling-stroke" />
    </g>
</svg>